<?xml version="1.0" encoding="UTF-8" standalone="no"?>
<!-- Created with Inkscape (http://www.inkscape.org/) -->

<svg
   width="210mm"
   height="297mm"
   viewBox="0 0 210 297"
   version="1.1"
   id="svg5"
   inkscape:version="1.2.1 (9c6d41e410, 2022-07-14)"
   sodipodi:docname="icon_offshore_wind_turbine.svg"
   inkscape:export-filename="icon_offshore_wind_turbine.png"
   inkscape:export-xdpi="96"
   inkscape:export-ydpi="96"
   xmlns:inkscape="http://www.inkscape.org/namespaces/inkscape"
   xmlns:sodipodi="http://sodipodi.sourceforge.net/DTD/sodipodi-0.dtd"
   xmlns="http://www.w3.org/2000/svg"
   xmlns:svg="http://www.w3.org/2000/svg">
  <sodipodi:namedview
     id="namedview7"
     pagecolor="#ffffff"
     bordercolor="#000000"
     borderopacity="0.25"
     inkscape:showpageshadow="2"
     inkscape:pageopacity="0.0"
     inkscape:pagecheckerboard="0"
     inkscape:deskcolor="#d1d1d1"
     inkscape:document-units="mm"
     showgrid="false"
     inkscape:zoom="0.54299809"
     inkscape:cx="46.040678"
     inkscape:cy="571.82522"
     inkscape:window-width="1890"
     inkscape:window-height="1014"
     inkscape:window-x="354"
     inkscape:window-y="1455"
     inkscape:window-maximized="0"
     inkscape:current-layer="layer1" />
  <defs
     id="defs2" />
  <g
     inkscape:label="Ebene 1"
     inkscape:groupmode="layer"
     id="layer1">
    <path
       style="fill:#0000ff;stroke-width:0.310199"
       id="path385"
       d="m 16.053496,279.08417 c 0.163626,-0.71315 0.54538,-1.39228 0.917956,-2.05761 0.554942,-1.0215 1.364493,-1.94588 2.18478,-2.85869 0.561279,-0.6862 1.452467,-1.14225 2.327675,-1.58948 0.747704,-0.3839 1.592761,-0.64005 2.441743,-0.87319 1.127979,-0.28662 2.315854,-0.40915 3.495601,-0.51402 1.376245,-0.13303 2.757405,-0.0654 4.133184,0.0237 1.945069,0.15071 3.877907,0.41513 5.769635,0.78094 0.783606,0.14741 1.541258,0.35345 2.243396,0.65089 0.152267,0.0646 0.601676,0.2672 0.448973,0.20326 -1.349427,-0.56505 -2.692918,-1.13778 -4.039376,-1.70667 0.908659,0.45953 1.719079,1.01953 2.469063,1.61274 0.584785,0.47512 1.125255,0.97703 1.643226,1.49209 0.499351,0.48843 0.967222,0.99362 1.424988,1.50359 0.353872,0.4047 0.722046,0.80193 1.136798,1.17402 0.362677,0.34562 0.716012,0.69586 1.084075,1.03865 0.398403,0.37793 0.835703,0.73179 1.263351,1.09136 0.385652,0.33562 0.749047,0.68384 1.161093,1.00222 0.422569,0.32051 0.90007,0.59501 1.376401,0.86958 0.456381,0.26316 0.908369,0.53062 1.394418,0.76344 1.623706,0.68772 3.238451,1.38707 4.87112,2.06313 0.01527,0.006 0.681595,0.19262 0.703649,0.19887 0.319798,0.0904 0.635932,0.18454 0.959145,0.26812 1.037984,0.20013 2.122703,0.24212 3.189855,0.28982 1.454618,0.0426 2.902569,-0.0623 4.324896,-0.28196 1.150279,-0.20345 2.203452,-0.59619 3.209261,-1.04466 0.8206,-0.40402 1.584639,-0.86776 2.356811,-1.32003 0.904743,-0.49114 1.830667,-0.9599 2.710267,-1.47575 0.650271,-0.35969 1.250478,-0.76496 1.847955,-1.17056 0.57556,-0.37699 1.116711,-0.78048 1.662646,-1.1803 0.620279,-0.47321 1.237268,-0.94988 1.841083,-1.43464 0.589918,-0.45482 1.17509,-0.91288 1.770599,-1.36378 0.47253,-0.38386 0.931419,-0.77929 1.361215,-1.18985 0.340881,-0.32204 0.690041,-0.64024 1.076761,-0.93298 0.497819,-0.36703 1.017379,-0.71745 1.52051,-1.08033 0.443246,-0.33666 0.891817,-0.67121 1.371093,-0.98013 0.421704,-0.27496 0.857467,-0.5369 1.304611,-0.78909 0.490912,-0.25475 0.977409,-0.51578 1.511137,-0.71983 0.634821,-0.27078 1.3211,-0.46333 2.014134,-0.63496 0.681098,-0.16046 1.388866,-0.22753 2.089614,-0.32134 0.765822,-0.0967 1.533239,-0.17169 2.3088,-0.20662 0.855136,-0.0291 1.712555,-0.0466 2.567908,-0.0165 0.794521,0.0251 1.602223,0.0357 2.381384,0.16393 0.215468,0.0274 0.430225,0.0612 0.64777,0.0792 0.06135,0.005 0.124852,-5.5e-4 0.184522,0.0121 0.04028,0.008 0.2664,0.10202 0.298283,0.11506 0.475743,0.1208 0.92013,0.29638 1.386785,0.43388 0.6812,0.20448 1.38599,0.3673 2.05504,0.59268 0.62396,0.17878 1.25605,0.34064 1.88373,0.51263 0.62441,0.12263 1.22404,0.29236 1.81291,0.48595 1.57762,0.6872 3.53172,1.47295 -4.16254,-1.76895 -0.0586,-0.0246 0.10972,0.0577 0.1648,0.0862 0.21295,0.11059 0.22876,0.11771 0.46006,0.23458 0.74365,0.36388 1.4811,0.73375 2.19136,1.13247 0.3682,0.19977 0.70079,0.42994 0.99948,0.68457 0.29867,0.26696 0.52878,0.56642 0.7573,0.86693 0.2772,0.38721 0.64622,0.72786 1.01243,1.06998 0.34819,0.32285 0.69892,0.64453 1.03714,0.97309 0.30628,0.30066 0.64097,0.58531 0.97719,0.86784 0.26477,0.20544 0.48966,0.43701 0.74121,0.64995 0.14283,0.12476 0.25819,0.25449 0.36133,0.39867 0.11481,0.16679 0.22464,0.33452 0.32204,0.50739 0.11095,0.13847 0.19585,0.28742 0.31601,0.42183 0,0 4.94292,1.64796 4.94292,1.64796 v 0 c -0.084,-0.15566 -0.23374,-0.28451 -0.3237,-0.43849 -0.10933,-0.11035 -0.12772,-0.20295 -0.21314,-0.31627 -0.0204,-0.0271 -0.05,-0.0502 -0.0688,-0.0779 -0.0219,-0.0326 -0.035,-0.0682 -0.0525,-0.10226 -0.035,-0.0541 -0.078,-0.1054 -0.10561,-0.16179 -0.0144,-0.0295 -0.0139,-0.0628 -0.0321,-0.091 -0.0138,-0.0214 -0.0446,-0.0342 -0.0611,-0.0546 -0.18929,-0.23455 0.091,0.0598 -0.11994,-0.15403 -0.18236,-0.20577 0.0478,0.0431 -0.17578,-0.16244 -0.0399,-0.0367 -0.0707,-0.0784 -0.1098,-0.11553 -0.15762,-0.14989 -0.35709,-0.27006 -0.50602,-0.42542 -0.3325,-0.26949 -0.64609,-0.54971 -0.96018,-0.83067 -0.35684,-0.33877 -0.72248,-0.67219 -1.09861,-0.99966 -0.35079,-0.32314 -0.70231,-0.65084 -0.98954,-1.00703 -0.25768,-0.29338 -0.43016,-0.62199 -0.72193,-0.90001 -0.27159,-0.30507 -0.60067,-0.57885 -0.99745,-0.79943 -0.70063,-0.4003 -1.42604,-0.7754 -2.16104,-1.14047 -1.75841,-0.94687 -3.60849,-1.85186 -5.63255,-2.44476 -0.58931,-0.16739 -1.19982,-0.28926 -1.79159,-0.45188 -0.630562,-0.16785 -1.257568,-0.34266 -1.877825,-0.53037 -0.685213,-0.18906 -1.372622,-0.37533 -2.042739,-0.59234 -0.478509,-0.16277 -0.959294,-0.3222 -1.458442,-0.44812 -0.383544,-0.0623 -0.782774,-0.0695 -1.169342,-0.1251 -0.786284,-0.0423 -1.573247,-0.0749 -2.361202,-0.0951 -0.874422,-0.008 -1.74996,0.004 -2.623177,0.0383 -0.781169,0.0538 -1.552905,0.15022 -2.327657,0.23998 -0.728296,0.0844 -1.452343,0.18143 -2.145623,0.37402 -0.712825,0.19367 -1.421196,0.40536 -2.088659,0.67421 -0.542389,0.22831 -1.044557,0.50345 -1.553514,0.76963 -0.46272,0.25708 -0.91307,0.52607 -1.340228,0.81496 -0.462765,0.32507 -0.905069,0.66582 -1.352997,1.0019 -0.511389,0.36196 -1.019457,0.72636 -1.541999,1.07964 -0.410658,0.30014 -0.772014,0.62755 -1.100763,0.97867 -0.420033,0.39906 -0.862787,0.78459 -1.317787,1.16221 -0.581969,0.46006 -1.149858,0.92977 -1.740564,1.38381 -0.606067,0.47867 -1.22057,0.952 -1.869152,1.39965 -0.546296,0.38913 -1.043858,0.81365 -1.61961,1.18038 -0.60421,0.39123 -1.2234,0.7695 -1.83165,1.15733 -0.84777,0.52976 -1.738951,1.01734 -2.649548,1.48672 -0.789114,0.42253 -1.568788,0.85478 -2.364933,1.26979 -0.948527,0.43143 -1.952459,0.79363 -3.052198,0.9604 -0.481356,0.0685 -0.787487,0.11832 -1.276372,0.16161 -0.979246,0.0868 -1.969273,0.0931 -2.952385,0.0426 -1.087482,-0.0721 -2.191773,-0.14989 -3.21904,-0.44197 -0.313313,-0.0902 -0.629107,-0.17691 -0.939733,-0.27212 -1.686476,-0.51683 -3.876488,-1.77067 3.550004,1.57089 -0.100695,-0.0413 -0.450865,-0.18175 -0.555175,-0.2351 -0.284492,-0.14559 -0.536592,-0.32711 -0.823408,-0.47097 -0.475496,-0.2784 -0.985261,-0.52601 -1.423501,-0.83749 -0.438189,-0.29535 -0.811883,-0.63021 -1.185602,-0.96964 -0.409108,-0.3718 -0.862728,-0.71434 -1.274729,-1.08461 -0.368933,-0.33429 -0.729735,-0.67244 -1.052581,-1.03197 -0.418183,-0.38143 -0.872662,-0.74247 -1.227734,-1.16014 -0.45505,-0.50963 -0.897157,-1.0262 -1.388687,-1.51722 -0.541684,-0.52804 -1.076102,-1.05931 -1.689839,-1.54454 -0.228339,-0.19399 -0.493764,-0.4261 -0.739636,-0.60867 -0.523257,-0.38859 -1.105464,-0.73617 -1.667587,-1.09255 -1.637796,-0.71014 -3.272001,-1.42479 -4.913387,-2.1304 -0.290029,-0.12461 -0.643457,-0.25072 -0.955193,-0.34235 -0.561287,-0.16509 -1.148842,-0.27234 -1.736121,-0.37264 -1.915629,-0.30102 -3.848911,-0.55735 -5.793694,-0.72905 -0.295722,-0.0224 -0.59085,-0.0496 -0.887164,-0.0674 -1.129635,-0.0675 -2.26173,-0.0316 -3.385299,0.0721 -1.220957,0.11602 -2.443312,0.26199 -3.610087,0.56159 -0.89342,0.23698 -1.76029,0.52962 -2.51323,0.96399 -0.903243,0.49355 -1.861558,0.98283 -2.408541,1.72941 -0.764866,0.96044 -1.524782,1.92384 -2.179167,2.92881 -0.40659,0.67655 -0.854193,1.33983 -1.183861,2.04029 0,0 4.761305,1.88019 4.761305,1.88019 z" />
    <path
       style="fill:#0000ff;stroke-width:0.270952"
       id="path385-6"
       d="m 13.062098,290.3673 c 0.16638,-0.53508 0.554562,-1.04465 0.93341,-1.54384 0.564284,-0.76646 1.387466,-1.46004 2.221562,-2.14496 0.570729,-0.51486 1.47692,-0.85704 2.366862,-1.19261 0.760293,-0.28806 1.619576,-0.48024 2.482852,-0.65517 1.146969,-0.21507 2.354841,-0.30699 3.554451,-0.38569 1.399414,-0.0998 2.803827,-0.0491 4.202769,0.0168 1.977815,0.11307 3.943192,0.31147 5.86677,0.58597 0.796798,0.11067 1.567205,0.26517 2.281163,0.48838 0.154833,0.0485 0.611806,0.20045 0.456532,0.15257 -1.372144,-0.42395 -2.738252,-0.8537 -4.10738,-1.28053 0.923957,0.3448 1.74802,0.76498 2.510633,1.21008 0.594629,0.35648 1.144198,0.73309 1.670888,1.11953 0.50776,0.36649 0.983506,0.74556 1.448979,1.1282 0.35983,0.30363 0.734202,0.60168 1.155937,0.88087 0.368783,0.25933 0.728065,0.52214 1.102327,0.77933 0.40511,0.28356 0.849771,0.54906 1.28462,0.81888 0.392145,0.25182 0.761656,0.51309 1.18064,0.75197 0.429684,0.2405 0.915223,0.44644 1.399572,0.65247 0.464066,0.19752 0.923662,0.39813 1.417896,0.57281 1.651042,0.516 3.29297,1.04074 4.953126,1.54801 0.01554,0.005 0.693073,0.14458 0.715496,0.14921 0.325182,0.0678 0.646639,0.1385 0.975295,0.20109 1.055458,0.15017 2.158439,0.18176 3.243556,0.21746 1.479106,0.0321 2.951437,-0.0467 4.397708,-0.21154 1.169645,-0.15273 2.240548,-0.44733 3.263291,-0.78384 0.834415,-0.30316 1.611319,-0.65111 2.39649,-0.99045 0.919975,-0.36851 1.861488,-0.72023 2.755896,-1.10728 0.661219,-0.26989 1.271529,-0.57398 1.879065,-0.8783 0.585248,-0.28286 1.135513,-0.58561 1.690638,-0.88559 0.630721,-0.35508 1.258099,-0.71272 1.87208,-1.07646 0.599848,-0.34126 1.194873,-0.68494 1.800403,-1.02325 0.480492,-0.28804 0.947102,-0.58474 1.384134,-0.89278 0.346619,-0.24162 0.701657,-0.48039 1.09489,-0.70003 0.506199,-0.27539 1.034508,-0.53833 1.546107,-0.81062 0.450712,-0.25258 0.906831,-0.5036 1.394177,-0.7354 0.428809,-0.20634 0.871907,-0.40285 1.32658,-0.59206 0.499175,-0.19122 0.99386,-0.38702 1.536578,-0.54012 0.645508,-0.20318 1.343339,-0.34763 2.048038,-0.47642 0.692569,-0.12042 1.412253,-0.17062 2.124799,-0.24108 0.778719,-0.0725 1.559055,-0.12874 2.347671,-0.15513 0.869527,-0.0219 1.741383,-0.0349 2.611138,-0.0128 0.807896,0.0189 1.629201,0.0267 2.421475,0.12299 0.21909,0.0209 0.437479,0.0457 0.658669,0.0595 0.06238,0.005 0.126957,-4e-4 0.187634,0.008 0.04093,0.006 0.27088,0.0764 0.303305,0.0864 0.483758,0.0905 0.935627,0.2224 1.410118,0.32555 0.692691,0.15337 1.409332,0.2756 2.089652,0.44474 0.63445,0.13401 1.27721,0.25557 1.91543,0.38462 0.63494,0.092 1.24466,0.21934 1.84344,0.3646 1.60417,0.51563 3.59117,1.10518 -4.23262,-1.32726 -0.0595,-0.0189 0.11155,0.0433 0.16757,0.0648 0.21655,0.083 0.23262,0.0883 0.46781,0.17608 0.75616,0.27299 1.50603,0.55053 2.22825,0.84972 0.37439,0.14985 0.71258,0.32258 1.0163,0.51363 0.3037,0.20024 0.53768,0.42499 0.77005,0.65048 0.28186,0.29054 0.65711,0.54613 1.0295,0.80283 0.35404,0.24224 0.71068,0.48358 1.05458,0.73012 0.31144,0.2256 0.65177,0.43918 0.99366,0.65116 0.26921,0.15417 0.49788,0.32791 0.75366,0.48766 0.14525,0.0937 0.26256,0.19101 0.36742,0.29914 0.1168,0.12522 0.22843,0.251 0.32746,0.3807 0.11294,0.10396 0.19916,0.21566 0.32134,0.31653 0,0 5.02614,1.23648 5.02614,1.23648 v 0 c -0.0853,-0.11691 -0.23769,-0.21347 -0.32916,-0.329 -0.11121,-0.0828 -0.12985,-0.15241 -0.21672,-0.23731 -0.0207,-0.021 -0.0509,-0.0376 -0.0698,-0.0584 -0.0223,-0.0243 -0.0357,-0.051 -0.0535,-0.0766 -0.0356,-0.0406 -0.0793,-0.0792 -0.10738,-0.12154 -0.0147,-0.0221 -0.0142,-0.047 -0.0327,-0.0683 -0.0139,-0.0168 -0.0454,-0.0256 -0.0618,-0.0409 -0.19247,-0.17587 0.0925,0.0449 -0.12196,-0.11563 -0.18544,-0.15449 0.0487,0.0323 -0.17875,-0.12186 -0.0406,-0.0275 -0.072,-0.0589 -0.11166,-0.0865 -0.16027,-0.11243 -0.36309,-0.20256 -0.51454,-0.31918 -0.33809,-0.20215 -0.65698,-0.41247 -0.97634,-0.62328 -0.36286,-0.25417 -0.73465,-0.50434 -1.11712,-0.75005 -0.35669,-0.24248 -0.71413,-0.48835 -1.0062,-0.75562 -0.26201,-0.22012 -0.43739,-0.46668 -0.73406,-0.6753 -0.27617,-0.22889 -0.61079,-0.43431 -1.01426,-0.5998 -0.71241,-0.30038 -1.45004,-0.5818 -2.19742,-0.85572 -1.78803,-0.71048 -3.66923,-1.3895 -5.72736,-1.83436 -0.599245,-0.1257 -1.220035,-0.21704 -1.821752,-0.33906 -0.641193,-0.12586 -1.278752,-0.25711 -1.909448,-0.39794 -0.696749,-0.14186 -1.395734,-0.28163 -2.077136,-0.44445 -0.486559,-0.12235 -0.97544,-0.24176 -1.482985,-0.33625 -0.390006,-0.0469 -0.795956,-0.0521 -1.189026,-0.0939 -0.799534,-0.0317 -1.599745,-0.0561 -2.400962,-0.0715 -0.889145,-0.006 -1.779422,0.002 -2.667339,0.0288 -0.794319,0.0403 -1.579047,0.1129 -2.366847,0.18009 -0.740557,0.0632 -1.476794,0.1361 -2.181743,0.28062 -0.724824,0.14537 -1.445123,0.30413 -2.123821,0.50588 -0.551519,0.17125 -1.062142,0.37774 -1.579672,0.57746 -0.470512,0.1929 -0.928439,0.39471 -1.362787,0.61149 -0.470557,0.2439 -0.920307,0.49956 -1.375778,0.75173 -0.519999,0.27159 -1.036621,0.545 -1.56796,0.81007 -0.417571,0.22519 -0.785012,0.47087 -1.119295,0.73433 -0.427104,0.29942 -0.877311,0.58869 -1.339972,0.87203 -0.591767,0.3452 -1.169218,0.69761 -1.769869,1.0383 -0.61627,0.35916 -1.241118,0.71429 -1.900619,1.05019 -0.555493,0.29197 -1.061433,0.6105 -1.646877,0.88565 -0.614382,0.29356 -1.243997,0.57739 -1.862487,0.86838 -0.862042,0.39749 -1.768227,0.76334 -2.694155,1.11551 -0.802401,0.31704 -1.595199,0.64137 -2.404749,0.95276 -0.964495,0.32369 -1.98533,0.59547 -3.103581,0.72061 -0.489462,0.0513 -0.800746,0.0886 -1.297863,0.12122 -0.99573,0.0651 -2.002426,0.0697 -3.00209,0.0322 -1.10579,-0.0542 -2.228673,-0.11243 -3.273233,-0.33162 -0.318588,-0.0676 -0.639698,-0.13274 -0.955554,-0.20424 -1.71487,-0.38779 -3.941751,-1.32857 3.60977,1.17865 -0.102396,-0.0309 -0.458454,-0.13642 -0.564521,-0.17629 -0.289283,-0.10923 -0.545627,-0.24542 -0.837271,-0.35337 -0.483501,-0.20886 -1.001848,-0.39466 -1.447464,-0.62838 -0.445569,-0.22163 -0.825553,-0.47287 -1.205565,-0.72755 -0.415996,-0.27896 -0.877253,-0.53598 -1.29619,-0.8138 -0.375143,-0.25084 -0.742021,-0.50456 -1.070301,-0.77431 -0.425224,-0.28619 -0.887355,-0.55709 -1.248403,-0.87049 -0.462712,-0.38238 -0.912262,-0.76998 -1.412068,-1.13837 -0.550803,-0.39622 -1.094218,-0.79485 -1.718289,-1.15892 -0.232182,-0.14553 -0.502077,-0.3197 -0.752086,-0.4567 -0.532067,-0.29156 -1.124076,-0.55236 -1.695664,-0.81974 -1.665368,-0.53284 -3.327086,-1.06906 -4.996104,-1.59849 -0.294912,-0.0936 -0.654292,-0.18808 -0.971276,-0.25689 -0.570738,-0.12378 -1.168182,-0.20424 -1.765351,-0.2796 -1.947878,-0.22583 -3.913708,-0.41819 -5.891232,-0.54701 -0.300701,-0.0168 -0.600798,-0.0373 -0.902101,-0.0507 -1.148653,-0.0507 -2.299807,-0.0238 -3.442291,0.0541 -1.241514,0.087 -2.484448,0.19647 -3.670866,0.42139 -0.90846,0.17775 -1.789924,0.39736 -2.55554,0.72329 -0.918452,0.37033 -1.892898,0.73744 -2.44909,1.29761 -0.777742,0.72064 -1.550452,1.44349 -2.2158558,2.19755 -0.4134336,0.50762 -0.8685733,1.0053 -1.2037894,1.53088 0,0 4.8414632,1.41073 4.8414632,1.41073 z" />
    <path
       style="fill:#0000ff;stroke-width:0.260204"
       id="path385-7"
       d="m 20.649444,264.13646 c 0.160176,-0.51259 0.53388,-1.00073 0.8986,-1.47897 0.54324,-0.73426 1.335722,-1.39869 2.138713,-2.05482 0.549445,-0.49324 1.42184,-0.82104 2.278595,-1.1425 0.731939,-0.27594 1.559179,-0.46008 2.390259,-0.62764 1.104196,-0.20603 2.267023,-0.2941 3.421895,-0.36949 1.347226,-0.0956 2.699265,-0.0471 4.046035,0.0169 1.904057,0.10829 3.79614,0.29839 5.647981,0.56134 0.767083,0.10604 1.508759,0.25404 2.196092,0.46784 0.149058,0.0464 0.58899,0.19206 0.439506,0.14617 -1.320973,-0.40616 -2.636135,-0.81783 -3.954203,-1.22673 0.8895,0.3303 1.68283,0.73281 2.417002,1.15922 0.572454,0.3415 1.101528,0.70227 1.608578,1.07248 0.488822,0.35109 0.946827,0.71421 1.39494,1.08079 0.346412,0.29089 0.706822,0.57642 1.112829,0.84387 0.35503,0.24843 0.700914,0.5002 1.061219,0.74659 0.390001,0.27163 0.818081,0.526 1.236712,0.78447 0.37752,0.24123 0.733252,0.49153 1.13661,0.72036 0.41366,0.23039 0.881092,0.4277 1.347378,0.62507 0.44676,0.18914 0.889217,0.38141 1.365019,0.54875 1.589469,0.49432 3.170165,0.99702 4.768408,1.48297 0.01495,0.005 0.667226,0.13843 0.688814,0.14294 0.313056,0.0649 0.622523,0.13263 0.938922,0.19272 1.016097,0.14391 2.077945,0.17405 3.122595,0.20833 1.423946,0.0306 2.841367,-0.0448 4.233704,-0.20267 1.126026,-0.14632 2.156992,-0.42853 3.141592,-0.7509 0.803298,-0.29042 1.551228,-0.62374 2.307118,-0.94884 0.885667,-0.35303 1.792067,-0.68995 2.65312,-1.06075 0.63656,-0.25855 1.224111,-0.54986 1.808989,-0.8414 0.563424,-0.27097 1.093167,-0.56101 1.62759,-0.84839 0.607199,-0.34013 1.211179,-0.68275 1.802263,-1.0312 0.577479,-0.32694 1.150313,-0.65618 1.733265,-0.98028 0.462567,-0.27591 0.911779,-0.56015 1.332514,-0.85526 0.333692,-0.23147 0.675491,-0.46021 1.054057,-0.67063 0.487322,-0.26381 0.995926,-0.51569 1.48845,-0.77654 0.433898,-0.24197 0.873012,-0.48243 1.342182,-0.7045 0.412813,-0.19762 0.839387,-0.38591 1.277103,-0.5672 0.480561,-0.18312 0.956799,-0.37073 1.479274,-0.5174 0.621436,-0.19462 1.293244,-0.33304 1.971666,-0.4564 0.66674,-0.11538 1.359584,-0.16355 2.045556,-0.23099 0.749676,-0.0695 1.500911,-0.12345 2.26012,-0.14859 0.8371,-0.0208 1.676444,-0.0335 2.513761,-0.0113 0.777764,0.0181 1.56844,0.0256 2.331173,0.11781 0.21092,0.0197 0.42116,0.044 0.6341,0.0569 0.06,0.003 0.12223,-3.7e-4 0.18064,0.008 0.0394,0.006 0.26078,0.0733 0.292,0.0827 0.46571,0.0869 0.90073,0.21304 1.35752,0.31186 0.66686,0.14697 1.35678,0.26402 2.01172,0.42604 0.6108,0.1286 1.22958,0.24484 1.84401,0.36847 0.61125,0.0882 1.19824,0.21013 1.77469,0.34929 1.54435,0.49396 3.45724,1.05875 -4.07477,-1.27149 -0.0573,-0.0177 0.10739,0.0414 0.16132,0.062 0.20846,0.0796 0.22394,0.0846 0.45037,0.16861 0.72795,0.26154 1.44986,0.52742 2.14514,0.814 0.36044,0.14358 0.68601,0.30904 0.9784,0.49208 0.29238,0.19186 0.51763,0.40712 0.74134,0.62314 0.27134,0.27833 0.6326,0.52318 0.99109,0.76908 0.34085,0.23206 0.68418,0.46328 1.01526,0.69947 0.29982,0.2161 0.62745,0.4207 0.9566,0.62378 0.25917,0.14778 0.47932,0.31414 0.72556,0.46718 0.13983,0.0896 0.25276,0.18293 0.35372,0.28657 0.1124,0.11989 0.2199,0.24043 0.31525,0.36472 0.10861,0.0996 0.19173,0.20659 0.30935,0.3032 0,0 4.8387,1.18455 4.8387,1.18455 v 0 c -0.0822,-0.11184 -0.22882,-0.20452 -0.31689,-0.3152 -0.10701,-0.0793 -0.12501,-0.146 -0.20864,-0.22733 -0.02,-0.0195 -0.049,-0.0361 -0.0673,-0.0559 -0.0215,-0.0234 -0.0343,-0.049 -0.0514,-0.0736 -0.0343,-0.0387 -0.0764,-0.0759 -0.10338,-0.11619 -0.0141,-0.0211 -0.0137,-0.045 -0.0315,-0.0656 -0.0134,-0.0161 -0.0437,-0.0247 -0.0597,-0.039 -0.18531,-0.16858 0.0891,0.043 -0.11742,-0.11071 -0.17852,-0.14794 0.0467,0.0309 -0.17207,-0.11683 -0.039,-0.0263 -0.0692,-0.0562 -0.10748,-0.083 -0.1543,-0.10765 -0.34956,-0.19411 -0.49536,-0.30578 -0.32549,-0.19369 -0.63247,-0.39513 -0.93993,-0.59707 -0.34931,-0.24352 -0.70725,-0.48319 -1.07545,-0.71856 -0.3434,-0.23227 -0.6875,-0.46781 -0.96868,-0.72385 -0.25224,-0.21087 -0.42108,-0.44709 -0.70669,-0.64693 -0.26587,-0.21926 -0.58801,-0.41606 -0.97643,-0.5746 -0.68586,-0.28776 -1.39597,-0.55737 -2.11547,-0.81977 -1.72134,-0.68061 -3.53239,-1.3311 -5.51378,-1.75727 -0.57689,-0.12022 -1.17452,-0.20795 -1.75381,-0.32482 -0.61728,-0.12054 -1.23106,-0.2463 -1.83823,-0.38123 -0.67077,-0.13585 -1.343684,-0.26977 -1.999673,-0.42577 -0.468414,-0.11715 -0.939067,-0.23159 -1.427686,-0.32211 -0.375462,-0.045 -0.766273,-0.05 -1.144684,-0.0899 -0.769711,-0.0305 -1.540082,-0.0537 -2.311423,-0.0683 -0.855984,-0.006 -1.71306,0.003 -2.567864,0.0276 -0.764696,0.0387 -1.520161,0.10797 -2.278576,0.17249 -0.71294,0.0606 -1.42172,0.13038 -2.100382,0.26886 -0.697795,0.13923 -1.39123,0.29136 -2.044619,0.4846 -0.530953,0.16411 -1.022532,0.36188 -1.520758,0.55321 -0.452965,0.1848 -0.893818,0.37813 -1.311968,0.58579 -0.453008,0.23366 -0.885985,0.47859 -1.324469,0.72016 -0.500607,0.26018 -0.997963,0.52208 -1.509487,0.77603 -0.401998,0.21573 -0.755735,0.45108 -1.077553,0.70348 -0.411176,0.28683 -0.844593,0.56395 -1.29,0.83536 -0.569698,0.3307 -1.125613,0.66833 -1.703864,0.9947 -0.593288,0.34407 -1.194834,0.68428 -1.82974,1.00605 -0.534776,0.2797 -1.021848,0.58486 -1.58546,0.84845 -0.59147,0.28121 -1.197604,0.55312 -1.793029,0.83189 -0.829894,0.38078 -1.702285,0.73126 -2.593682,1.06864 -0.772476,0.30373 -1.535709,0.61441 -2.315067,0.91272 -0.928527,0.31011 -1.911292,0.57046 -2.987841,0.69033 -0.471207,0.0493 -0.770883,0.0849 -1.24946,0.11603 -0.958597,0.0624 -1.927751,0.0669 -2.890134,0.0306 -1.064552,-0.0519 -2.145559,-0.10765 -3.151164,-0.3177 -0.306707,-0.0649 -0.615842,-0.12715 -0.919918,-0.19559 -1.650918,-0.37149 -3.794752,-1.27275 3.47515,1.12915 -0.09857,-0.0297 -0.441358,-0.1307 -0.543469,-0.16899 -0.278493,-0.10475 -0.525278,-0.23514 -0.806046,-0.33855 -0.465469,-0.2001 -0.964486,-0.37806 -1.393485,-0.60195 -0.42895,-0.2123 -0.794765,-0.45301 -1.160604,-0.69698 -0.400483,-0.26726 -0.844538,-0.51348 -1.247852,-0.77961 -0.361152,-0.24029 -0.714348,-0.48337 -1.030386,-0.74178 -0.409366,-0.27417 -0.854263,-0.53369 -1.201847,-0.83391 -0.445455,-0.3663 -0.878241,-0.73763 -1.359405,-1.09055 -0.530263,-0.37955 -1.053413,-0.76145 -1.65421,-1.11023 -0.223524,-0.13956 -0.483353,-0.30627 -0.72404,-0.43751 -0.512223,-0.27929 -1.082155,-0.52913 -1.632426,-0.78529 -1.603262,-0.51044 -3.20301,-1.02414 -4.809785,-1.53134 -0.283914,-0.0896 -0.629891,-0.1802 -0.935053,-0.24608 -0.549453,-0.1186 -1.124619,-0.19573 -1.699516,-0.26785 -1.875236,-0.21634 -3.767755,-0.40061 -5.671531,-0.52403 -0.289487,-0.0163 -0.578392,-0.0356 -0.868458,-0.0485 -1.105817,-0.0485 -2.21404,-0.0227 -3.313919,0.0517 -1.195215,0.0835 -2.391794,0.18831 -3.533969,0.40367 -0.87458,0.17034 -1.723171,0.38069 -2.460235,0.69292 -0.8842,0.35475 -1.822308,0.70643 -2.357757,1.2431 -0.748739,0.69033 -1.492632,1.38283 -2.133221,2.10519 -0.398014,0.48631 -0.83618,0.96305 -1.158896,1.46655 0,0 4.660911,1.35147 4.660911,1.35147 z" />
    <rect
       style="fill:#808080;stroke-width:0.264583"
       id="rect752"
       width="7.1513243"
       height="160.71504"
       x="90.527542"
       y="89.615067"
       ry="4.4065514" />
    <ellipse
       style="fill:#b3b3b3;stroke-width:0.264583"
       id="path862"
       cx="94.069885"
       cy="94.763519"
       rx="2.9465871"
       ry="3.0265584"
       inkscape:transform-center-x="0.3209565"
       inkscape:transform-center-y="1.0592576" />
    <path
       style="fill:#b3b3b3;stroke-width:0.2742"
       id="path978"
       d="m 60.859177,111.52677 a 45.392536,17.215181 0 0 1 -26.149226,15.5917 45.392536,17.215181 0 0 1 -48.320169,-2.37209"
       sodipodi:type="arc"
       sodipodi:arc-type="arc"
       sodipodi:start="0"
       sodipodi:end="2.2660298"
       sodipodi:ry="17.215181"
       sodipodi:rx="45.392536"
       sodipodi:cy="111.52677"
       sodipodi:cx="15.46664"
       sodipodi:open="true"
       transform="matrix(0.98161228,-0.19088563,0.31328934,0.94965772,0,0)" />
    <path
       style="fill:#b3b3b3;stroke-width:0.2742"
       id="path978-2"
       d="m -124.87243,-33.115444 a 45.392536,17.215181 0 0 1 -26.14923,15.591693 45.392536,17.215181 0 0 1 -48.32017,-2.372084"
       sodipodi:type="arc"
       sodipodi:arc-type="arc"
       sodipodi:start="0"
       sodipodi:end="2.2660298"
       sodipodi:ry="17.215181"
       sodipodi:rx="45.392536"
       sodipodi:cy="-33.115444"
       sodipodi:cx="-170.26497"
       sodipodi:open="true"
       transform="matrix(-0.85502472,-0.51858724,0.40648842,-0.91365593,0,0)" />
    <path
       style="fill:#b3b3b3;stroke-width:0.2742"
       id="path978-6"
       d="M 90.557781,-111.79174 A 45.392536,17.215181 0 0 1 64.408556,-96.200047 45.392536,17.215181 0 0 1 16.088387,-98.572131"
       sodipodi:type="arc"
       sodipodi:arc-type="arc"
       sodipodi:start="0"
       sodipodi:end="2.2660298"
       sodipodi:ry="17.215181"
       sodipodi:rx="45.392536"
       sodipodi:cy="-111.79174"
       sodipodi:cx="45.165245"
       sodipodi:open="true"
       transform="matrix(-0.18043052,0.98358773,-0.99849701,-0.05480617,0,0)" />
    <ellipse
       style="fill:#1a1a1a;stroke-width:0.264583"
       id="path1455"
       cx="93.901428"
       cy="94.714149"
       rx="1.2896138"
       ry="1.2148601" />
  </g>
</svg>
